<svg width="211" height="68" viewBox="0 0 211 68" fill="none" xmlns="http://www.w3.org/2000/svg">
<path fill-rule="evenodd" clip-rule="evenodd" d="M15.936 0H0V67.1302C8.63374 66.0647 17.7087 65.1269 27.1579 64.3298C27.6405 63.9754 28.0919 63.5881 28.512 63.168C31.264 60.416 32.64 56.448 32.64 51.264V45.504C32.64 37.952 30.016 33.28 24.768 31.488V31.296C27.072 30.336 28.768 28.768 29.856 26.592C31.008 24.416 31.584 21.6 31.584 18.144V15.456C31.584 10.208 30.336 6.336 27.84 3.84C25.344 1.28 21.376 0 15.936 0ZM49.3725 62.7596C45.8103 62.9647 42.2893 63.1891 38.8125 63.4321V0H49.3725V62.7596ZM76.0973 61.6114C72.546 61.7137 69.0251 61.8346 65.5373 61.9736V9.6H54.4972V0H87.1373V9.6H76.0973V61.6114ZM102.81 61.2022C99.267 61.2095 95.7463 61.2352 92.25 61.2788V0H120.186V9.6H102.81V28.32H116.442V37.92H102.81V61.2022ZM153.186 62.3697C144.105 61.9206 134.777 61.5954 125.25 61.4035V0H135.81V57.6H153.186V62.3697ZM168.81 63.2795C165.332 63.0457 161.811 62.8304 158.25 62.6343V0H168.81V63.2795ZM184.729 64.5046C181.552 64.2282 178.332 63.9679 175.072 63.7241L186.031 32.832L174.415 0H185.551L192.655 21.696H192.847L200.143 0H210.127L198.511 32.832L210.703 67.2H210.41C206.733 66.7428 202.974 66.3087 199.14 65.8989L191.887 43.776H191.695L184.729 64.5046ZM19.392 25.728C18.368 26.816 16.8 27.36 14.688 27.36H10.56V9.6H15.648C17.504 9.6 18.848 10.144 19.68 11.232C20.576 12.32 21.024 14.08 21.024 16.512V20.256C21.024 22.816 20.48 24.64 19.392 25.728ZM20.736 56.16C19.84 57.12 18.464 57.6 16.608 57.6H10.56V36.96H15.264C17.696 36.96 19.424 37.568 20.448 38.784C21.536 39.936 22.08 42.048 22.08 45.12V50.976C22.08 53.408 21.632 55.136 20.736 56.16Z" fill="#43B0ED"/>
</svg>
